<?xml version="1.0" encoding="iso-8859-1"?>
<!-- Uploaded to: SVG Repo, www.svgrepo.com, Generator: SVG Repo Mixer Tools -->
<svg fill="#000000" height="800px" width="800px" version="1.1" id="Layer_1" xmlns="http://www.w3.org/2000/svg" xmlns:xlink="http://www.w3.org/1999/xlink" 
	 viewBox="0 0 512 512" xml:space="preserve">
<g>
	<g>
		<path d="M225.511,273.074l-1.037-16.603c-0.352-5.623-5.213-9.912-10.815-9.543c-5.623,0.351-9.895,5.193-9.543,10.815
			l1.037,16.603c0.339,5.407,4.827,9.564,10.17,9.564c0.214,0,0.429-0.006,0.646-0.02
			C221.59,283.539,225.863,278.696,225.511,273.074z"/>
	</g>
</g>
<g>
	<g>
		<path d="M236.655,451.339l-8.582-137.284c-0.351-5.623-5.174-9.887-10.815-9.542c-5.622,0.352-9.894,5.193-9.542,10.815
			l8.581,137.284c0.338,5.406,4.826,9.563,10.17,9.563c0.214,0,0.429-0.006,0.647-0.02
			C232.734,461.803,237.006,456.961,236.655,451.339z"/>
	</g>
</g>
<g>
	<g>
		<path d="M297.972,246.928c-5.644-0.366-10.465,3.923-10.815,9.542l-12.179,194.869c-0.352,5.623,3.922,10.464,9.542,10.815
			c0.217,0.014,0.432,0.02,0.647,0.02c5.341,0,9.832-4.158,10.17-9.563l12.179-194.869
			C307.868,252.121,303.594,247.28,297.972,246.928z"/>
	</g>
</g>
<g>
	<g>
		<path d="M391.433,93.025c-1.934-2.129-4.675-3.341-7.549-3.341h-31.359l-54.281-54.281c-3.984-3.982-10.44-3.982-14.425,0
			L261.69,57.531L207.145,2.986c-3.984-3.982-10.44-3.982-14.425,0l-61.851,61.851c-3.983,3.983-3.983,10.441,0,14.425
			l10.423,10.423h-13.175c-2.869,0-5.604,1.209-7.537,3.328c-1.934,2.119-2.883,4.955-2.618,7.812l3.178,34.323l6.309,68.126
			c0.156,1.691,0.733,3.318,1.678,4.729l0.749,1.121c5.056,7.567,8.093,16.363,8.783,25.436l20.391,268.016
			c0.404,5.317,4.836,9.425,10.17,9.425h173.194c5.333,0,9.765-4.108,10.171-9.425l20.39-268.016
			c0.69-9.073,3.728-17.87,8.785-25.437l0.751-1.125c0.935-1.4,1.508-3.011,1.671-4.688l6.554-68.126l3.302-34.323
			C394.311,97.998,393.365,95.152,391.433,93.025z M291.031,57.039l32.645,32.645h-65.103L291.031,57.039z M332.84,110.082
			l-13.925,13.925h-55.768l-13.925-13.925H332.84z M298.516,144.405l-7.486,7.486l-7.485-7.486H298.516z M199.932,24.623
			l47.332,47.332l-17.728,17.728H170.14l-17.634-17.634L199.932,24.623z M234.299,124.008h-10.05l5.025-5.025L234.299,124.008z
			 M209.325,110.082l-9.392,9.393l-9.393-9.393H209.325z M139.304,110.082h22.386l13.926,13.925h-35.022L139.304,110.082z
			 M364.118,198.823c-6.595,10.241-10.56,22.034-11.484,34.188L332.96,491.602H178.671l-19.673-258.591
			c-0.924-12.145-4.885-23.932-11.474-34.172l-5.04-54.432h105.213h7.001l29.122,29.122c3.984,3.984,10.44,3.984,14.425,0
			l29.122-29.122h5.586h36.402L364.118,198.823z M371.316,124.007h-23.552l13.493-13.733c0.037-0.052,0.079-0.101,0.113-0.154
			c0.008-0.012,0.019-0.025,0.028-0.038h11.258L371.316,124.007z"/>
	</g>
</g>
</svg>